#!OML:ASF E:\basketball\basketball\Project 1\Capture day 1\Session 1\Subject.ASF
:FULLY-SPECIFIED
:DEGREES
81
root -34.1904 14.5564 -12.0496 29.0982 64.179 21.7744
lowerback 9.80905 0.515692 -11.4254
upperback 7.71318 0.286438 -3.74768
thorax 2.68119 -0.0798977 2.43773
lowerneck -6.85283 -4.98777 -9.94443
upperneck -12.7917 -4.41602 18.6547
head -1.80754 -2.08515 7.39765
rclavicle -3.4191e-014 2.38542e-014
rhumerus -25.236 19.9383 -94.9477
rradius 112.132
rwrist 11.4538
rhand -32.9989 37.2932
rfingers 7.12502
rthumb -6.21318 7.40435
lclavicle -3.4191e-014 2.38542e-014
lhumerus -8.44905 -24.3192 101.055
lradius 45.7562
lwrist 8.64906
lhand -19.5172 27.0464
lfingers 7.12502
lthumb 6.80588 56.917
rfemur -48.7736 -14.0627 5.86105
rtibia 73.8479
rfoot -24.9135 3.17937
rtoes 35.9394
lfemur 6.74522 -15.4391 -27.0184
ltibia 21.7097
lfoot -26.3123 27.4039
ltoes -50.3315
82
root -34.1095 14.5179 -11.9519 28.5429 63.5519 21.0942
lowerback 10.3216 0.520218 -11.5097
upperback 7.71842 0.199365 -3.4597
thorax 2.41788 -0.12498 2.79222
lowerneck -6.89538 -4.67901 -9.71619
upperneck -12.917 -4.03323 18.0044
head -1.92785 -1.89277 7.16199
rclavicle 6.14245e-014 -1.11319e-014
rhumerus -23.5138 21.9386 -94.0461
rradius 111.163
rwrist 13.6736
rhand -32.3954 36.7613
rfingers 7.12502
rthumb -5.6305 6.85612
lclavicle 6.14245e-014 -1.11319e-014
lhumerus -8.26454 -23.9973 100.945
lradius 45.0607
lwrist 8.35584
lhand -19.7555 27.4332
lfingers 7.12502
lthumb 6.57586 57.3111
rfemur -49.9025 -13.4417 5.41592
rtibia 73.3653
rfoot -24.4842 3.6554
rtoes 36.0194
lfemur 7.63623 -15.44 -27.132
ltibia 21.0786
lfoot -26.8163 27.4927
ltoes -49.6961
83
root -34.029 14.4786 -11.8474 27.8909 62.8478 20.284
lowerback 10.8185 0.570532 -11.6578
upperback 7.71175 0.167812 -3.13533
thorax 2.1466 -0.145082 3.21692
lowerneck -6.93449 -4.36256 -9.48351
upperneck -13.0553 -3.64551 17.3062
head -2.05146 -1.69692 6.90997
rclavicle -4.37326e-015 1.63003e-014
rhumerus -21.6965 24.031 -93.0097
rradius 109.926
rwrist 15.6686
rhand -31.9518 36.328
rfingers 7.12502
rthumb -5.20221 6.41186
lclavicle -4.37326e-015 1.63003e-014
lhumerus -8.11721 -23.4852 100.81
lradius 44.3607
lwrist 7.51705
lhand -20.1073 27.5596
lfingers 7.12502
lthumb 6.23621 57.4478
rfemur -51.0641 -12.7035 5.04064
rtibia 72.8637
rfoot -23.985 4.0006
rtoes 35.9171
lfemur 8.55788 -15.4156 -27.2135
ltibia 20.4134
lfoot -27.4059 27.5257
ltoes -48.9818
84
root -33.948 14.4395 -11.736 27.1654 62.0909 19.3613
lowerback 11.2896 0.656106 -11.8571
upperback 7.69862 0.180362 -2.76952
thorax 1.87898 -0.145885 3.71065
lowerneck -6.98743 -4.04204 -9.26426
upperneck -13.2013 -3.25642 16.5664
head -2.1724 -1.49765 6.64642
rclavicle 4.83047e-014 -7.13637e-014
rhumerus -19.7922 26.1768 -91.8342
rradius 108.409
rwrist 17.4518
rhand -31.6932 36.0445
rfingers 7.12502
rthumb -4.95249 6.12236
lclavicle 4.83047e-014 -7.13637e-014
lhumerus -7.97196 -22.6647 100.638
lradius 43.6631
lwrist 5.81778
lhand -20.6122 27.3586
lfingers 7.12502
lthumb 5.74873 57.2606
rfemur -52.2413 -11.8765 4.75268
rtibia 72.3522
rfoot -23.4083 4.35652
rtoes 36.1925
lfemur 9.50914 -15.3273 -27.2292
ltibia 19.6886
lfoot -28.1333 27.4085
ltoes -48.1406
85
root -33.8655 14.4018 -11.6182 26.4044 61.33 18.3614
lowerback 11.7244 0.759944 -12.0633
upperback 7.69174 0.221835 -2.3717
thorax 1.63434 -0.133978 4.24044
lowerneck -7.07841 -3.72717 -9.05291
upperneck -13.3505 -2.87692 15.7996
head -2.28339 -1.29966 6.37443
rclavicle 7.95139e-016 4.7112e-014
rhumerus -17.808 28.2941 -90.5416
rradius 106.598
rwrist 19.0589
rhand -31.6133 35.9876
rfingers 7.12502
rthumb -4.8753 6.06373
lclavicle 7.95139e-016 4.7112e-014
lhumerus -7.78665 -21.4362 100.398
lradius 42.9597
lwrist 2.91571
lhand -21.2659 26.8587
lfingers 7.12502
lthumb 5.11761 56.7769
rfemur -53.4013 -11.0188 4.56855
rtibia 71.8447
rfoot -22.7733 4.7394
rtoes 36.941
lfemur 10.4802 -15.1523 -27.1435
ltibia 18.8905
lfoot -28.9899 27.0722
ltoes -47.1295
86
root -33.78 14.3668 -11.4949 25.6488 60.6268 17.333
lowerback 12.1219 0.861323 -12.22
upperback 7.70393 0.272958 -1.95817
thorax 1.42782 -0.117503 4.75984
lowerneck -7.2165 -3.42824 -8.83936
upperneck -13.5019 -2.51871 15.0275
head -2.38075 -1.10932 6.09922
rclavicle 5.45664e-014 -7.95139e-016
rhumerus -15.7649 30.2823 -89.1754
rradius 104.476
rwrist 20.532
rhand -31.6923 36.249
rfingers 7.12502
rthumb -4.95166 6.32683
lclavicle 5.45664e-014 -7.95139e-016
lhumerus -7.53679 -19.7309 100.068
lradius 42.2457
lwrist -1.4693
lhand -21.9841 26.2132
lfingers 7.12502
lthumb 4.42415 56.147
rfemur -54.496 -10.2061 4.49708
rtibia 71.3621
rfoot -22.0969 5.16128
rtoes 38.1375
lfemur 11.4625 -14.8974 -26.9357
ltibia 18.0223
lfoot -29.8976 26.5063
ltoes -45.9443
87
root -33.6901 14.3352 -11.3673 24.929 60.0389 16.3296
lowerback 12.4964 0.942123 -12.2752
upperback 7.74796 0.316077 -1.55033
thorax 1.26716 -0.103667 5.21906
lowerneck -7.40523 -3.1561 -8.61487
upperneck -13.6533 -2.19392 14.2792
head -2.46138 -0.933805 5.82866
rclavicle 7.45443e-016 -1.76918e-014
rhumerus -13.6939 32.0388 -87.7977
rradius 102.021
rwrist 21.9037
rhand -31.9073 36.9045
rfingers 7.12502
rthumb -5.15919 6.98731
lclavicle 7.45443e-016 -1.76918e-014
lhumerus -7.23671 -17.65 99.6537
lradius 41.6541
lwrist -7.19533
lhand -22.6001 25.6027
lfingers 7.12502
lthumb 3.82932 55.548
rfemur -55.4685 -9.51335 4.53678
rtibia 70.9329
rfoot -21.3861 5.61966
rtoes 39.6213
lfemur 12.4566 -14.6003 -26.6124
ltibia 17.1078
lfoot -30.7439 25.7615
ltoes -44.6324
88
root -33.595 14.307 -11.2361 24.259 59.6066 15.3983
lowerback 12.8752 0.990741 -12.1991
upperback 7.83072 0.337459 -1.16491
thorax 1.14714 -0.0978444 5.58499
lowerneck -7.63791 -2.91881 -8.38651
upperneck -13.7999 -1.91077 13.5883
head -2.52364 -0.778247 5.57484
rclavicle 4.14218e-014 1.11319e-014
rhumerus -11.6377 33.4828 -86.476
rradius 99.2145
rwrist 23.185
rhand -32.2303 37.9803
rfingers 7.12502
rthumb -5.47107 8.07091
lclavicle 4.14218e-014 1.11319e-014
lhumerus -6.95882 -15.6323 99.2108
lradius 41.3715
lwrist -13.1078
lhand -22.9615 25.141
lfingers 7.12502
lthumb 3.48025 55.0924
rfemur -56.2655 -8.99769 4.67997
rtibia 70.5889
rfoot -20.6312 6.09546
rtoes 41.1556
lfemur 13.47 -14.3386 -26.2124
ltibia 16.1932
lfoot -31.4552 24.9324
ltoes -43.2333
89
root -33.4943 14.2815 -11.1014 23.6371 59.3462 14.5687
lowerback 13.2885 1.00487 -11.9898
upperback 7.95162 0.331569 -0.81032
thorax 1.0524 -0.101612 5.8476
lowerneck -7.90241 -2.72217 -8.17424
upperneck -13.9341 -1.67445 12.9874
head -2.56657 -0.645872 5.35158
rclavicle -2.91157e-014 2.20775e-014
rhumerus -9.64258 34.5625 -85.2741
rradius 96.04
rwrist 24.365
rhand -32.6246 39.4301
rfingers 7.12502
rthumb -5.85183 9.5309
lclavicle -2.91157e-014 2.20775e-014
lhumerus -6.78846 -14.3053 98.8186
lradius 41.5281
lwrist -17.4005
lhand -23.0535 24.7048
lfingers 7.12502
lthumb 3.39142 54.6575
rfemur -56.8481 -8.68669 4.91803
rtibia 70.3568
rfoot -19.8085 6.56622
rtoes 42.5354
lfemur 14.4968 -14.1697 -25.7777
ltibia 15.352
lfoot -32.0065 24.0967
ltoes -41.7805
90
root -33.388 14.2584 -10.963 23.0552 59.2554 13.8492
lowerback 13.7542 0.987809 -11.6609
upperback 8.10411 0.299782 -0.487862
thorax 0.966807 -0.113552 6.01264
lowerneck -8.18445 -2.5703 -8.0014
upperneck -14.051 -1.48786 12.5028
head -2.59088 -0.53846 5.17125
rclavicle 2.75814e-014 9.34288e-015
rhumerus -7.74597 35.2508 -84.2442
rradius 92.4872
rwrist 25.4207
rhand -33.0415 41.1319
rfingers 7.12502
rthumb -6.25427 11.2442
lclavicle 2.75814e-014 9.34288e-015
lhumerus -6.779 -14.1432 98.5374
lradius 42.1253
lwrist -18.5305
lhand -22.9327 24.1215
lfingers 7.12502
lthumb 3.50806 54.0724
rfemur -57.1965 -8.58082 5.24681
rtibia 70.2508
rfoot -18.9015 7.01636
rtoes 43.6525
lfemur 15.5042 -14.1327 -25.3413
ltibia 14.6837
lfoot -32.4365 23.3001
ltoes -40.2584
91
root -33.2768 14.2372 -10.8202 22.5002 59.3122 13.2183
lowerback 14.2675 0.950479 -11.2368
upperback 8.27518 0.254546 -0.192421
thorax 0.877148 -0.127373 6.09735
lowerneck -8.46535 -2.46566 -7.88308
upperneck -14.1511 -1.35294 12.1468
head -2.60017 -0.457363 5.04033
rclavicle 5.57591e-014 3.05134e-014
rhumerus -5.9738 35.5326 -83.4246
rradius 88.5527
rwrist 26.3389
rhand -33.4269 42.9043
rfingers 7.12502
rthumb -6.62636 13.028
lclavicle 5.57591e-014 3.05134e-014
lhumerus -6.94241 -15.1579 98.3876
lradius 43.1392
lwrist -16.3203
lhand -22.6079 23.3409
lfingers 7.12502
lthumb 3.82179 53.2864
rfemur -57.3188 -8.65019 5.67093
rtibia 70.2688
rfoot -17.9266 7.43749
rtoes 44.4952
lfemur 16.4248 -14.2227 -24.9101
ltibia 14.306
lfoot -32.8 22.5532
ltoes -38.642
92
root -33.1617 14.218 -10.6721 21.9667 59.4845 12.6404
lowerback 14.8008 0.905619 -10.7457
upperback 8.44849 0.212211 0.0849722
thorax 0.778152 -0.135655 6.12482
lowerneck -8.72645 -2.40744 -7.8267
upperneck -14.2392 -1.26875 11.9159
head -2.59976 -0.402354 4.95895
rclavicle -2.28602e-015 3.37934e-014
rhumerus -4.33327 35.4021 -82.8355
rradius 84.2408
rwrist 27.1329
rhand -33.7311 44.5427
rfingers 7.12502
rthumb -6.92001 14.6758
lclavicle -2.28602e-015 3.37934e-014
lhumerus -7.25041 -16.8993 98.3502
lradius 44.5271
lwrist -12.0555
lhand -22.0496 22.5063
lfingers 7.12502
lthumb 4.36087 52.4414
rfemur -57.2437 -8.84871 6.1981
rtibia 70.3926
rfoot -16.9584 7.82385
rtoes 45.0947
lfemur 17.1648 -14.4036 -24.4691
ltibia 14.338
lfoot -33.1468 21.8423
ltoes -36.8913
93
root -33.0435 14.2005 -10.5181 21.4582 59.7361 12.0786
lowerback 15.3126 0.866827 -10.2158
upperback 8.60952 0.190823 0.353453
thorax 0.673446 -0.130859 6.11789
lowerneck -8.9558 -2.39267 -7.83018
upperneck -14.3196 -1.23305 11.7914
head -2.59402 -0.372322 4.92097
rclavicle 5.9536e-014 -3.43897e-014
rhumerus -2.81515 34.8501 -82.4822
rradius 79.5675
rwrist 27.8529
rhand -33.9173 45.8614
rfingers 7.12502
rthumb -7.0997 16.0004
lclavicle 5.9536e-014 -3.43897e-014
lhumerus -7.64483 -18.768 98.3851
lradius 46.0851
lwrist -7.4459
lhand -21.2993 21.8365
lfingers 7.12502
lthumb 5.08539 51.7555
rfemur -57.0114 -9.12354 6.83259
rtibia 70.5965
rfoot -16.1377 8.17313
rtoes 45.4809
lfemur 17.6024 -14.6156 -23.989
ltibia 14.9292
lfoot -33.5107 21.1324
ltoes -34.9752
94
root -32.9225 14.1843 -10.3575 21.0033 60.022 11.494
lowerback 15.7245 0.847064 -9.67715
upperback 8.73887 0.208767 0.627533
thorax 0.580988 -0.106454 6.10563
lowerneck -9.14564 -2.41533 -7.89465
upperneck -14.3908 -1.24127 11.7407
head -2.58513 -0.364417 4.91618
rclavicle 4.41302e-014 -1.47101e-014
rhumerus -1.40161 33.8732 -82.347
rradius 74.5623
rwrist 28.573
rhand -33.9655 46.7276
rfingers 7.12502
rthumb -7.14622 16.8683
lclavicle 4.41302e-014 -1.47101e-014
lhumerus -8.06846 -20.2853 98.4653
lradius 47.3494
lwrist -3.73715
lhand -20.5298 21.4604
lfingers 7.12502
lthumb 5.82832 51.3603
rfemur -56.6949 -9.42074 7.57554
rtibia 70.8471
rfoot -15.634 8.49031
rtoes 45.6691
lfemur 17.6636 -14.8062 -23.441
ltibia 16.0825
lfoot -33.8446 20.4138
ltoes -32.8408
